<?xml version="1.0" encoding="UTF-8"?>
<svg version="1.1" xmlns="http://www.w3.org/2000/svg" width="128" height="50">
<path d="M0 0 C42.24 0 84.48 0 128 0 C128 16.5 128 33 128 50 C85.76 50 43.52 50 0 50 C0 33.5 0 17 0 0 Z " fill="#FCFDFC" transform="translate(0,0)"/>
<path d="M0 0 C1.32 0 2.64 0 4 0 C4.33 1.98 4.66 3.96 5 6 C5.33 5.67 5.66 5.34 6 5 C8.4375 4.8125 8.4375 4.8125 11 5 C13 7 13 7 13.23046875 9.42578125 C13.20919922 10.85470703 13.20919922 10.85470703 13.1875 12.3125 C13.18105469 13.25738281 13.17460938 14.20226563 13.16796875 15.17578125 C13.00747977 17.87423557 12.59933915 20.36770247 12 23 C9.66666667 23 7.33333333 23 5 23 C4.505 20.525 4.505 20.525 4 18 C3.67 19.65 3.34 21.3 3 23 C-0.85645121 23.22036864 -3.49223216 22.60355101 -7 21 C-7 21.66 -7 22.32 -7 23 C-7.66 23 -8.32 23 -9 23 C-9 21.02 -9 19.04 -9 17 C-9.99 16.67 -10.98 16.34 -12 16 C-13.39935013 13.20129973 -13.25265405 11.09501208 -13 8 C-11.875 6.125 -11.875 6.125 -10 5 C-5.92205575 4.57521414 -4.46923881 4.68717413 -1 7 C-1 7.99 -1 8.98 -1 10 C-3.31 9.67 -5.62 9.34 -8 9 C-8 10.65 -8 12.3 -8 14 C-7.01 14 -6.02 14 -5 14 C-4.67 13.34 -4.34 12.68 -4 12 C-2.68 12 -1.36 12 0 12 C0 8.04 0 4.08 0 0 Z " fill="#CACACA" transform="translate(104,18)"/>
<path d="M0 0 C1.875 1.375 1.875 1.375 3 3 C3 3.66 3 4.32 3 5 C0.69 4.67 -1.62 4.34 -4 4 C-4 5.65 -4 7.3 -4 9 C-3.01 9 -2.02 9 -1 9 C-0.67 8.34 -0.34 7.68 0 7 C0.99 7 1.98 7 3 7 C3.45375 6.030625 3.9075 5.06125 4.375 4.0625 C6 1 6 1 8 0 C11.6216958 -0.39366259 13.36349317 -0.45225485 16.375 1.6875 C18 4 18 4 18.5 6.5 C17.82597224 9.87013879 16.7912125 11.01677007 14 13 C9.89222251 13.50299316 8.49124017 13.32749345 5 11 C5 10.34 5 9.68 5 9 C4.34 9 3.68 9 3 9 C2.67 9.99 2.34 10.98 2 12 C-0.82883747 13.41441874 -2.87376745 13.31900332 -6 13 C-8.59814888 10.74827097 -8.95716454 9.34982295 -9.375 5.9375 C-9 3 -9 3 -7.875 1.125 C-5.11909116 -0.52854531 -3.14924548 -0.39365568 0 0 Z " fill="#4A4A4A" transform="translate(48,23)"/>
<path d="M0 0 C-0.20625 0.721875 -0.4125 1.44375 -0.625 2.1875 C-1.06824615 5.51184616 -0.58255263 7.07227764 1 10 C1.99 10.66 2.98 11.32 4 12 C3.34 12.66 2.68 13.32 2 14 C-3.74869861 14 -6.53216583 12.17075289 -10.51953125 8.375 C-11.97187227 6.89698225 -11.97187227 6.89698225 -14 6 C-13 3 -13 3 -9.8125 1.3125 C-6.4652075 -0.01535157 -3.61508773 -0.26451861 0 0 Z " fill="#359B49" transform="translate(23,12)"/>
<path d="M0 0 C1.875 1.1875 1.875 1.1875 3 3 C3.1875 5.6875 3.1875 5.6875 3 8 C0.36 8 -2.28 8 -5 8 C-5 8.66 -5 9.32 -5 10 C-1.535 9.505 -1.535 9.505 2 9 C2 9.99 2 10.98 2 12 C-0.84083641 13.42041821 -2.85477278 13.31452272 -6 13 C-8.7912125 11.01677007 -9.82597224 9.87013879 -10.5 6.5 C-9.33037707 0.65188536 -5.56964553 -0.82952167 0 0 Z " fill="#4C4C4C" transform="translate(35,23)"/>
<path d="M0 0 C1.875 1.25 1.875 1.25 3 3 C3 4.32 3 5.64 3 7 C0.03 7 -2.94 7 -6 7 C-5.67 7.66 -5.34 8.32 -5 9 C-2.36 9 0.28 9 3 9 C2 12 2 12 0 13 C-5.21653972 13.44396083 -5.21653972 13.44396083 -7.875 11.9375 C-9.64273274 8.8930714 -9.36823916 6.4368988 -9 3 C-6.84332735 -0.71426957 -4.0099826 -0.50124783 0 0 Z " fill="#4A4A4A" transform="translate(87,23)"/>
<path d="M0 0 C1.875 1.375 1.875 1.375 3 3 C3 3.66 3 4.32 3 5 C0.69 4.67 -1.62 4.34 -4 4 C-4 5.65 -4 7.3 -4 9 C-3.01 9 -2.02 9 -1 9 C-0.67 8.34 -0.34 7.68 0 7 C0.99 7 1.98 7 3 7 C3.66 6.01 4.32 5.02 5 4 C5 5.65 5 7.3 5 9 C4.34 9 3.68 9 3 9 C2.67 9.99 2.34 10.98 2 12 C-0.82883747 13.41441874 -2.87376745 13.31900332 -6 13 C-8.59814888 10.74827097 -8.95716454 9.34982295 -9.375 5.9375 C-9 3 -9 3 -7.875 1.125 C-5.11909116 -0.52854531 -3.14924548 -0.39365568 0 0 Z " fill="#545454" transform="translate(48,23)"/>
<path d="M0 0 C0.99 0 1.98 0 3 0 C3.33 1.98 3.66 3.96 4 6 C4.33 5.67 4.66 5.34 5 5 C7.5 4.875 7.5 4.875 10 5 C11 6 11 6 11.09765625 8.50390625 C11.08605469 9.51324219 11.07445313 10.52257812 11.0625 11.5625 C11.05347656 12.57441406 11.04445313 13.58632813 11.03515625 14.62890625 C11.02355469 15.41136719 11.01195313 16.19382812 11 17 C10.01 17 9.02 17 8 17 C7.67 14.36 7.34 11.72 7 9 C6.01 9 5.02 9 4 9 C3.67 11.64 3.34 14.28 3 17 C2.01 17 1.02 17 0 17 C0 11.39 0 5.78 0 0 Z " fill="#3D3D3D" transform="translate(105,18)"/>
<path d="M0 0 C0.99 0 1.98 0 3 0 C3 1.32 3 2.64 3 4 C4.65 4 6.3 4 8 4 C8 4.99 8 5.98 8 7 C6.35 7 4.7 7 3 7 C3 9.31 3 11.62 3 14 C4.32 13.67 5.64 13.34 7 13 C7 13.99 7 14.98 7 16 C6 17 6 17 3.5625 17.1875 C1 17 1 17 -1 15 C-1.26991906 12.31160615 -1.08737357 9.70858064 -1 7 C-1.66 7 -2.32 7 -3 7 C-3 6.01 -3 5.02 -3 4 C-2.34 4 -1.68 4 -1 4 C-0.67 2.68 -0.34 1.36 0 0 Z " fill="#525252" transform="translate(69,19)"/>
<path d="M0 0 C4.36300503 1.58457397 6.4852802 2.99507588 9 7 C9.4375 9.6875 9.4375 9.6875 9 12 C8.01 12.66 7.02 13.32 6 14 C5.67 12.02 5.34 10.04 5 8 C5 9.98 5 11.96 5 14 C3.33388095 14.042721 1.66617115 14.04063832 0 14 C-0.33 13.67 -0.66 13.34 -1 13 C-0.90982004 10.80949979 -0.75333792 8.621534 -0.5625 6.4375 C-0.46066406 5.23996094 -0.35882812 4.04242188 -0.25390625 2.80859375 C-0.17011719 1.88175781 -0.08632813 0.95492188 0 0 Z " fill="#84CD2F" transform="translate(25,8)"/>
<path d="M0 0 C0.99 0.66 1.98 1.32 3 2 C3 2.99 3 3.98 3 5 C0.69 4.67 -1.62 4.34 -4 4 C-4 5.65 -4 7.3 -4 9 C-1.36 8.67 1.28 8.34 4 8 C3.4375 9.9375 3.4375 9.9375 2 12 C-1.375 13 -1.375 13 -5 13 C-7.4375 11.4375 -7.4375 11.4375 -9 9 C-9.45742277 5.79804064 -9.55468045 3.92446741 -7.875 1.125 C-5.14747535 -0.51151479 -3.12026907 -0.32502803 0 0 Z " fill="#4D4D4D" transform="translate(100,23)"/>
<path d="M0 0 C3.25696479 0.41755959 4.63443291 0.63443291 7 3 C7.125 5.625 7.125 5.625 7 8 C2.545 8.495 2.545 8.495 -2 9 C-1.125 1.125 -1.125 1.125 0 0 Z " fill="#7D7D7D" transform="translate(31,23)"/>
<path d="M0 0 C2.4375 0.1875 2.4375 0.1875 3.4375 1.1875 C3.50976502 3.04037502 3.5213122 4.89583878 3.5 6.75 C3.49097656 7.76191406 3.48195313 8.77382813 3.47265625 9.81640625 C3.46105469 10.59886719 3.44945313 11.38132812 3.4375 12.1875 C2.4475 12.1875 1.4575 12.1875 0.4375 12.1875 C0.31375 10.269375 0.31375 10.269375 0.1875 8.3125 C-0.02119931 6.13416582 -0.02119931 6.13416582 -0.5625 4.1875 C-2.48314793 2.5975567 -2.48314793 2.5975567 -4.5625 2.1875 C-2.5625 0.1875 -2.5625 0.1875 0 0 Z " fill="#454545" transform="translate(112.5625,22.8125)"/>
<path d="M0 0 C0 1.32 0 2.64 0 4 C-4.29 4.66 -8.58 5.32 -13 6 C-13 5.01 -13 4.02 -13 3 C-8.37802694 0.78145293 -5.23175837 -0.38281159 0 0 Z " fill="#3A9D4D" transform="translate(23,12)"/>
<path d="M0 0 C2.69082872 0.17635452 5.32851446 0.61835921 8 1 C7.67 2.32 7.34 3.64 7 5 C6.01 4.67 5.02 4.34 4 4 C3.67 4.99 3.34 5.98 3 7 C1.68 6.67 0.36 6.34 -1 6 C-1.042721 4.33388095 -1.04063832 2.66617115 -1 1 C-0.67 0.67 -0.34 0.34 0 0 Z " fill="#F6F6F6" transform="translate(44,26)"/>
<path d="M0 0 C1.98 0 3.96 0 6 0 C6 1.98 6 3.96 6 6 C3 7 3 7 0 7 C0 4.69 0 2.38 0 0 Z " fill="#ECECEC" transform="translate(72,26)"/>
<path d="M0 0 C3.4989668 1.8913334 6.0354554 3.48449915 8 7 C8.375 9.625 8.375 9.625 8 12 C7.01 12.66 6.02 13.32 5 14 C4.67 11.03 4.34 8.06 4 5 C3.01 4.67 2.02 4.34 1 4 C0.3125 1.9375 0.3125 1.9375 0 0 Z " fill="#93D24A" transform="translate(26,8)"/>
<path d="M0 0 C1.67542976 0.28604898 3.34385343 0.61781233 5 1 C5 2.65 5 4.3 5 6 C3.34385343 6.38218767 1.67542976 6.71395102 0 7 C-1 6 -1 6 -1.125 3.5 C-1 1 -1 1 0 0 Z " fill="#EDEDED" transform="translate(57,26)"/>
<path d="M0 0 C2.8992226 0.46761655 3.86675182 0.86675182 6 3 C5.01 4.32 4.02 5.64 3 7 C1.68 6.67 0.36 6.34 -1 6 C-1.042721 4.33388095 -1.04063832 2.66617115 -1 1 C-0.67 0.67 -0.34 0.34 0 0 Z " fill="#F6F6F6" transform="translate(96,26)"/>
<path d="M0 0 C0.66 1.32 1.32 2.64 2 4 C1.34 4.66 0.68 5.32 0 6 C0 5.34 0 4.68 0 4 C-0.99 4.495 -0.99 4.495 -2 5 C-3.99960012 5.039992 -6.00047242 5.04346799 -8 5 C-8.33 4.01 -8.66 3.02 -9 2 C-6.03 2 -3.06 2 0 2 C0 1.34 0 0.68 0 0 Z " fill="#D5D5D5" transform="translate(90,28)"/>
<path d="M0 0 C1.32 0.66 2.64 1.32 4 2 C4 3.32 4 4.64 4 6 C1.36 6 -1.28 6 -4 6 C-4 5.67 -4 5.34 -4 5 C-2.35 5 -0.7 5 1 5 C0.67 3.35 0.34 1.7 0 0 Z " fill="#3F3F3F" transform="translate(86,24)"/>
<path d="M0 0 C1.98 0 3.96 0 6 0 C5.67 1.65 5.34 3.3 5 5 C3.35 5 1.7 5 0 5 C0 3.35 0 1.7 0 0 Z " fill="#939393" transform="translate(81,23)"/>
<path d="M0 0 C0 0.66 0 1.32 0 2 C-3.63 2.33 -7.26 2.66 -11 3 C-10 0 -10 0 -8.3125 -1.3125 C-5.05700446 -2.28035003 -3.07213795 -1.25678371 0 0 Z " fill="#6CB37A" transform="translate(20,15)"/>
<path d="M0 0 C0.66 1.32 1.32 2.64 2 4 C2.66 4 3.32 4 4 4 C4 5.32 4 6.64 4 8 C3.01 7.67 2.02 7.34 1 7 C1 6.01 1 5.02 1 4 C0.01 3.67 -0.98 3.34 -2 3 C-1.34 2.01 -0.68 1.02 0 0 Z " fill="#D6D6D6" transform="translate(103,33)"/>
<path d="M0 0 C1.875 0.25 1.875 0.25 4 1 C5.25 3.0625 5.25 3.0625 6 5 C3.61435923 4.42415568 1.33317216 3.77772405 -1 3 C-0.67 2.01 -0.34 1.02 0 0 Z " fill="#4A4A4A" transform="translate(45,23)"/>
<path d="M0 0 C-1 3 -1 3 -3 4 C-4.99960012 4.039992 -7.00047242 4.04346799 -9 4 C-6.31059578 0.90718514 -4.07621501 0 0 0 Z " fill="#595959" transform="translate(90,32)"/>
</svg>
